<?xml version="1.0" encoding="UTF-8"?>
<svg xmlns="http://www.w3.org/2000/svg" xmlns:xlink="http://www.w3.org/1999/xlink" width="2000" height="2000" viewBox="0 0 2000 2000">
<path fill-rule="evenodd" fill="rgb(95.701599%, 96.875%, 98.046875%)" fill-opacity="1" d="M 0 0.078125 L 1999.921875 0.078125 L 1999.921875 2000 L 0 2000 L 0 0.078125 "/>
<path fill-rule="evenodd" fill="rgb(95.701599%, 96.875%, 98.046875%)" fill-opacity="1" d="M 1908.238281 1915.15625 L 1889.179688 1915.15625 C 1888.300781 1915.15625 1887.589844 1915.871094 1887.589844 1916.746094 L 1887.589844 1935.800781 C 1887.589844 1936.679688 1888.300781 1937.394531 1889.179688 1937.394531 L 1908.238281 1937.394531 C 1909.109375 1937.394531 1909.828125 1936.679688 1909.828125 1935.800781 L 1909.828125 1916.746094 C 1909.828125 1915.871094 1909.109375 1915.15625 1908.238281 1915.15625 "/>
<path fill-rule="evenodd" fill="rgb(95.701599%, 96.875%, 98.046875%)" fill-opacity="1" d="M 1865.28125 1916.171875 L 1847.089844 1916.171875 C 1846.261719 1916.171875 1845.578125 1916.855469 1845.578125 1917.691406 L 1845.578125 1935.875 C 1845.578125 1936.710938 1846.261719 1937.394531 1847.089844 1937.394531 L 1865.28125 1937.394531 C 1866.109375 1937.394531 1866.800781 1936.710938 1866.800781 1935.875 L 1866.800781 1917.691406 C 1866.800781 1916.855469 1866.109375 1916.171875 1865.28125 1916.171875 "/>
<path fill-rule="evenodd" fill="rgb(95.701599%, 96.875%, 98.046875%)" fill-opacity="1" d="M 1822.320312 1917.1875 L 1805.011719 1917.1875 C 1804.210938 1917.1875 1803.558594 1917.839844 1803.558594 1918.636719 L 1803.558594 1935.949219 C 1803.558594 1936.742188 1804.210938 1937.394531 1805.011719 1937.394531 L 1822.320312 1937.394531 C 1823.121094 1937.394531 1823.769531 1936.742188 1823.769531 1935.949219 L 1823.769531 1918.636719 C 1823.769531 1917.839844 1823.121094 1917.1875 1822.320312 1917.1875 "/>
<path fill-rule="evenodd" fill="rgb(95.701599%, 96.875%, 98.046875%)" fill-opacity="1" d="M 1779.371094 1918.207031 L 1762.929688 1918.207031 C 1762.171875 1918.207031 1761.550781 1918.824219 1761.550781 1919.582031 L 1761.550781 1936.019531 C 1761.550781 1936.777344 1762.171875 1937.394531 1762.929688 1937.394531 L 1779.371094 1937.394531 C 1780.121094 1937.394531 1780.738281 1936.777344 1780.738281 1936.019531 L 1780.738281 1919.582031 C 1780.738281 1918.824219 1780.121094 1918.207031 1779.371094 1918.207031 "/>
<path fill-rule="evenodd" fill="rgb(95.701599%, 96.875%, 98.046875%)" fill-opacity="1" d="M 1736.410156 1919.222656 L 1720.839844 1919.222656 C 1720.128906 1919.222656 1719.539062 1919.808594 1719.539062 1920.523438 L 1719.539062 1936.09375 C 1719.539062 1936.808594 1720.128906 1937.394531 1720.839844 1937.394531 L 1736.410156 1937.394531 C 1737.128906 1937.394531 1737.710938 1936.808594 1737.710938 1936.09375 L 1737.710938 1920.523438 C 1737.710938 1919.808594 1737.128906 1919.222656 1736.410156 1919.222656 "/>
<path fill-rule="evenodd" fill="rgb(95.701599%, 96.875%, 98.046875%)" fill-opacity="1" d="M 1693.460938 1920.238281 L 1678.761719 1920.238281 C 1678.078125 1920.238281 1677.53125 1920.792969 1677.53125 1921.46875 L 1677.53125 1936.167969 C 1677.53125 1936.84375 1678.078125 1937.394531 1678.761719 1937.394531 L 1693.460938 1937.394531 C 1694.128906 1937.394531 1694.679688 1936.84375 1694.679688 1936.167969 L 1694.679688 1921.46875 C 1694.679688 1920.792969 1694.128906 1920.238281 1693.460938 1920.238281 "/>
<path fill-rule="evenodd" fill="rgb(95.701599%, 96.875%, 98.046875%)" fill-opacity="1" d="M 1650.5 1921.257812 L 1636.671875 1921.257812 C 1636.039062 1921.257812 1635.519531 1921.777344 1635.519531 1922.414062 L 1635.519531 1936.238281 C 1635.519531 1936.875 1636.039062 1937.394531 1636.671875 1937.394531 L 1650.5 1937.394531 C 1651.140625 1937.394531 1651.648438 1936.875 1651.648438 1936.238281 L 1651.648438 1922.414062 C 1651.648438 1921.777344 1651.140625 1921.257812 1650.5 1921.257812 "/>
<path fill-rule="evenodd" fill="rgb(95.701599%, 96.875%, 98.046875%)" fill-opacity="1" d="M 1607.539062 1922.273438 L 1594.589844 1922.273438 C 1593.988281 1922.273438 1593.511719 1922.761719 1593.511719 1923.355469 L 1593.511719 1936.3125 C 1593.511719 1936.90625 1593.988281 1937.394531 1594.589844 1937.394531 L 1607.539062 1937.394531 C 1608.140625 1937.394531 1608.628906 1936.90625 1608.628906 1936.3125 L 1608.628906 1923.355469 C 1608.628906 1922.761719 1608.140625 1922.273438 1607.539062 1922.273438 "/>
<path fill-rule="evenodd" fill="rgb(95.701599%, 96.875%, 98.046875%)" fill-opacity="1" d="M 1564.589844 1923.292969 L 1552.5 1923.292969 C 1551.949219 1923.292969 1551.488281 1923.746094 1551.488281 1924.300781 L 1551.488281 1936.386719 C 1551.488281 1936.941406 1551.949219 1937.394531 1552.5 1937.394531 L 1564.589844 1937.394531 C 1565.140625 1937.394531 1565.601562 1936.941406 1565.601562 1936.386719 L 1565.601562 1924.300781 C 1565.601562 1923.746094 1565.140625 1923.292969 1564.589844 1923.292969 "/>
<path fill-rule="evenodd" fill="rgb(38.035583%, 66.992188%, 87.889099%)" fill-opacity="1" d="M 999.960938 69.859375 C 1511.558594 69.859375 1930.140625 488.441406 1930.140625 1000.039062 C 1930.140625 1511.636719 1511.558594 1930.21875 999.960938 1930.21875 C 488.363281 1930.21875 69.78125 1511.636719 69.78125 1000.039062 C 69.78125 488.441406 488.363281 69.859375 999.960938 69.859375 "/>
<path fill="none" stroke-width="379.999" stroke-linecap="round" stroke-linejoin="round" stroke="rgb(100%, 100%, 100%)" stroke-opacity="1" stroke-miterlimit="2.61313" d="M 6270.507812 17145.78125 L 13200.703125 17145.78125 C 13681.289062 17145.78125 14074.492188 16752.617188 14074.492188 16271.992188 L 14074.492188 12867.109375 C 14074.492188 12386.484375 13681.289062 11993.28125 13200.703125 11993.28125 L 6270.507812 11993.28125 C 5789.921875 11993.28125 5396.71875 12386.484375 5396.71875 12867.109375 L 5396.71875 16271.992188 C 5396.71875 16752.617188 5789.921875 17145.78125 6270.507812 17145.78125 Z M 6270.507812 17145.78125 " transform="matrix(0.1, 0, 0, -0.1, 0, 2000)"/>
<path fill="none" stroke-width="379.999" stroke-linecap="round" stroke-linejoin="round" stroke="rgb(100%, 100%, 100%)" stroke-opacity="1" stroke-miterlimit="2.61313" d="M 4477.695312 10396.40625 L 6165.078125 10396.40625 C 6397.070312 10396.40625 6586.875 10206.601562 6586.875 9974.53125 L 6586.875 8287.1875 C 6586.875 8055.195312 6397.070312 7865.351562 6165.078125 7865.351562 L 4477.695312 7865.351562 C 4245.703125 7865.351562 4055.898438 8055.195312 4055.898438 8287.1875 L 4055.898438 9974.53125 C 4055.898438 10206.601562 4245.703125 10396.40625 4477.695312 10396.40625 Z M 4477.695312 10396.40625 " transform="matrix(0.1, 0, 0, -0.1, 0, 2000)"/>
<path fill="none" stroke-width="379.999" stroke-linecap="round" stroke-linejoin="round" stroke="rgb(100%, 100%, 100%)" stroke-opacity="1" stroke-miterlimit="2.61313" d="M 13306.09375 10396.40625 L 14993.515625 10396.40625 C 15225.507812 10396.40625 15415.3125 10206.601562 15415.3125 9974.53125 L 15415.3125 8287.1875 C 15415.3125 8055.195312 15225.507812 7865.351562 14993.515625 7865.351562 L 13306.09375 7865.351562 C 13074.101562 7865.351562 12884.296875 8055.195312 12884.296875 8287.1875 L 12884.296875 9974.53125 C 12884.296875 10206.601562 13074.101562 10396.40625 13306.09375 10396.40625 Z M 13306.09375 10396.40625 " transform="matrix(0.1, 0, 0, -0.1, 0, 2000)"/>
<path fill="none" stroke-width="379.999" stroke-linecap="round" stroke-linejoin="round" stroke="rgb(100%, 100%, 100%)" stroke-opacity="1" stroke-miterlimit="2.61313" d="M 12552.8125 5816.445312 L 14240.195312 5816.445312 C 14472.1875 5816.445312 14661.992188 5626.640625 14661.992188 5394.648438 L 14661.992188 3707.265625 C 14661.992188 3475.273438 14472.1875 3285.429688 14240.195312 3285.429688 L 12552.8125 3285.429688 C 12320.78125 3285.429688 12131.015625 3475.273438 12131.015625 3707.265625 L 12131.015625 5394.648438 C 12131.015625 5626.640625 12320.78125 5816.445312 12552.8125 5816.445312 Z M 12552.8125 5816.445312 " transform="matrix(0.1, 0, 0, -0.1, 0, 2000)"/>
<path fill="none" stroke-width="379.998" stroke-linecap="round" stroke-linejoin="round" stroke="rgb(100%, 100%, 100%)" stroke-opacity="1" stroke-miterlimit="2.61313" d="M 9991.71875 11993.28125 L 9991.71875 9988.242188 C 9888.90625 10028.007812 9777.148438 10049.882812 9660.273438 10049.882812 C 9543.398438 10049.882812 9431.640625 10028.007812 9328.828125 9988.242188 L 9328.828125 11993.28125 Z M 10517.617188 9462.304688 L 12884.296875 9462.304688 L 12884.296875 8799.414062 L 10517.617188 8799.414062 C 10557.382812 8902.265625 10579.296875 9014.023438 10579.296875 9130.898438 C 10579.296875 9247.734375 10557.382812 9359.492188 10517.617188 9462.304688 Z M 9991.71875 8273.515625 L 9991.71875 5408.28125 C 9888.90625 5448.085938 9777.148438 5469.960938 9660.273438 5469.960938 C 9543.398438 5469.960938 9431.640625 5448.085938 9328.828125 5408.28125 L 9328.828125 8273.515625 C 9431.640625 8233.75 9543.398438 8211.875 9660.273438 8211.875 C 9777.148438 8211.875 9888.90625 8233.75 9991.71875 8273.515625 Z M 10517.617188 4882.382812 L 12131.015625 4882.382812 L 12131.015625 4219.492188 L 10517.617188 4219.492188 C 10557.382812 4322.34375 10579.296875 4434.0625 10579.296875 4550.9375 C 10579.296875 4667.8125 10557.382812 4779.570312 10517.617188 4882.382812 Z M 8802.890625 8799.414062 L 6586.875 8799.414062 L 6586.875 9462.304688 L 8802.890625 9462.304688 C 8763.125 9359.492188 8741.289062 9247.734375 8741.289062 9130.898438 C 8741.289062 9014.023438 8763.125 8902.265625 8802.890625 8799.414062 Z M 8802.890625 8799.414062 " transform="matrix(0.1, 0, 0, -0.1, 0, 2000)"/>
<path fill="none" stroke-width="379.999" stroke-linecap="round" stroke-linejoin="round" stroke="rgb(100%, 100%, 100%)" stroke-opacity="1" stroke-miterlimit="2.61313" d="M 9660.273438 10049.882812 C 10167.8125 10049.882812 10579.296875 9638.4375 10579.296875 9130.898438 C 10579.296875 8623.320312 10167.8125 8211.875 9660.273438 8211.875 C 9152.734375 8211.875 8741.289062 8623.320312 8741.289062 9130.898438 C 8741.289062 9638.4375 9152.734375 10049.882812 9660.273438 10049.882812 Z M 9660.273438 5469.960938 C 10167.8125 5469.960938 10579.296875 5058.515625 10579.296875 4550.9375 C 10579.296875 4043.398438 10167.8125 3631.953125 9660.273438 3631.953125 C 9152.734375 3631.953125 8741.289062 4043.398438 8741.289062 4550.9375 C 8741.289062 5058.515625 9152.734375 5469.960938 9660.273438 5469.960938 Z M 9660.273438 5469.960938 " transform="matrix(0.1, 0, 0, -0.1, 0, 2000)"/>
</svg>
