<svg id="visual" viewBox="0 0 960 100" width="960" height="100" xmlns="http://www.w3.org/2000/svg" xmlns:xlink="http://www.w3.org/1999/xlink" version="1.1"><rect x="0" y="0" width="960" height="100" fill="#ffffff"></rect><path d="M0 66L16 66.8C32 67.7 64 69.3 96 71.7C128 74 160 77 192 73.3C224 69.7 256 59.3 288 54.3C320 49.3 352 49.7 384 50.3C416 51 448 52 480 56C512 60 544 67 576 67.8C608 68.7 640 63.3 672 59.7C704 56 736 54 768 53C800 52 832 52 864 54.5C896 57 928 62 944 64.5L960 67L960 0L944 0C928 0 896 0 864 0C832 0 800 0 768 0C736 0 704 0 672 0C640 0 608 0 576 0C544 0 512 0 480 0C448 0 416 0 384 0C352 0 320 0 288 0C256 0 224 0 192 0C160 0 128 0 96 0C64 0 32 0 16 0L0 0Z" fill="#ffffff"></path><path d="M0 50L16 50.8C32 51.7 64 53.3 96 52.7C128 52 160 49 192 46C224 43 256 40 288 38.2C320 36.3 352 35.7 384 39.2C416 42.7 448 50.3 480 53.8C512 57.3 544 56.7 576 55.8C608 55 640 54 672 53.3C704 52.7 736 52.3 768 49.3C800 46.3 832 40.7 864 40.8C896 41 928 47 944 50L960 53L960 0L944 0C928 0 896 0 864 0C832 0 800 0 768 0C736 0 704 0 672 0C640 0 608 0 576 0C544 0 512 0 480 0C448 0 416 0 384 0C352 0 320 0 288 0C256 0 224 0 192 0C160 0 128 0 96 0C64 0 32 0 16 0L0 0Z" fill="#f6f7f8"></path><path d="M0 45L16 41.8C32 38.7 64 32.3 96 28.5C128 24.7 160 23.3 192 23.7C224 24 256 26 288 26.2C320 26.3 352 24.7 384 23.7C416 22.7 448 22.3 480 25.8C512 29.3 544 36.7 576 37.3C608 38 640 32 672 31.8C704 31.7 736 37.3 768 38.3C800 39.3 832 35.7 864 32.8C896 30 928 28 944 27L960 26L960 0L944 0C928 0 896 0 864 0C832 0 800 0 768 0C736 0 704 0 672 0C640 0 608 0 576 0C544 0 512 0 480 0C448 0 416 0 384 0C352 0 320 0 288 0C256 0 224 0 192 0C160 0 128 0 96 0C64 0 32 0 16 0L0 0Z" fill="#eeeff2"></path><path d="M0 28L16 26.7C32 25.3 64 22.7 96 21.5C128 20.3 160 20.7 192 22C224 23.3 256 25.7 288 26.5C320 27.3 352 26.7 384 26.5C416 26.3 448 26.7 480 25.7C512 24.7 544 22.3 576 19.3C608 16.3 640 12.7 672 13.8C704 15 736 21 768 22.5C800 24 832 21 864 21C896 21 928 24 944 25.5L960 27L960 0L944 0C928 0 896 0 864 0C832 0 800 0 768 0C736 0 704 0 672 0C640 0 608 0 576 0C544 0 512 0 480 0C448 0 416 0 384 0C352 0 320 0 288 0C256 0 224 0 192 0C160 0 128 0 96 0C64 0 32 0 16 0L0 0Z" fill="#e5e7eb"></path></svg>